<svg id="SvgjsSvg1001" width="288" height="288" xmlns="http://www.w3.org/2000/svg" version="1.1" xmlns:xlink="http://www.w3.org/1999/xlink" xmlns:svgjs="http://svgjs.com/svgjs"><defs id="SvgjsDefs1002"></defs><g id="SvgjsG1008" transform="matrix(1,0,0,1,0,0)"><svg xmlns="http://www.w3.org/2000/svg" width="288" height="288" version="1.0" viewBox="0 0 700 700"><g transform="matrix(.1 0 0 -.1 0 700)" fill="#dadada" class="color000 svgShape"><path d="M3781 6303 c-11 -44 -16 -169 -37 -951 -4 -164 -10 -232 -17 -229-21 7 -111 135 -212 299 -187 308 -276 442 -416 629 -77 102 -151 191 -165
198 -78 35 -114 -8 -125 -148 -7 -98 -24 -861 -24 -1096 0 -277 77 -370 208
-254 31 27 53 58 69 97 23 56 23 61 25 520 1 255 3 465 5 467 4 3 84 -126 203
-330 111 -189 236 -380 334 -512 60 -82 86 -108 127 -130 30 -16 58 -24 68
-20 25 10 63 101 77 183 9 58 7 151 -11 505 -29 573 -43 746 -64 787 -9 17
-20 32 -25 32 -4 0 -13 -21 -20 -47z" fill="#dadada" class="color000 svgShape"></path><path d="M1069 6299 c-25 -25 -24 -40 13 -215 38 -178 44 -356 15 -433 -22
-56 -21 -67 3 -91 37 -37 67 -26 205 75 122 90 130 94 146 78 9 -10 119 -146
245 -303 267 -334 447 -558 1375 -1710 113 -140 211 -265 217 -276 10 -18 7
-28 -17 -60 -123 -165 -1161 -1438 -1171 -1436 -7 2 -110 7 -229 12 -136 6
-236 15 -271 24 -48 14 -57 14 -77 0 -29 -19 -31 -69 -4 -84 21 -11 380 -50
461 -50 l51 0 -18 -31 c-36 -63 -38 -63 -300 -50 -205 11 -238 10 -251 -3 -16
-16 -19 -63 -5 -77 11 -11 134 -24 306 -35 59 -3 107 -9 107 -13 0 -4 -15 -22
-34 -40 -34 -33 -37 -34 -113 -32 -43 0 -180 8 -305 17 -252 19 -258 18 -258
-41 0 -24 6 -34 25 -43 15 -7 130 -16 271 -22 135 -5 250 -12 255 -16 17 -10
9 -22 -25 -38 -28 -13 -71 -16 -234 -16 -169 0 -203 -2 -216 -16 -17 -17 -20
-42 -8 -62 14 -21 71 -32 215 -39 100 -4 135 -9 127 -17 -16 -17 -289 -21
-397 -6 -71 10 -96 10 -107 1 -22 -19 -26 -49 -8 -71 15 -16 43 -21 212 -35
106 -9 195 -17 197 -18 1 -2 -22 -34 -52 -71 -58 -72 -65 -95 -39 -120 35 -35
70 -19 128 57 33 43 42 46 51 15 19 -64 109 -306 121 -325 18 -28 55 -30 79
-3 21 23 18 40 -28 145 -44 100 -94 315 -79 342 9 15 11 15 15 3 3 -8 24 -76
47 -150 23 -74 47 -141 52 -147 16 -19 63 -15 82 6 17 19 16 27 -30 188 -56
197 -63 243 -39 263 9 8 19 9 24 4 5 -5 44 -112 86 -238 43 -125 85 -235 93
-243 15 -15 58 -11 76 7 17 17 6 60 -83 315 -52 148 -90 269 -87 280 6 23 52
82 58 75 3 -3 31 -78 62 -166 32 -89 64 -171 72 -183 26 -37 94 -20 94 23 0
13 -29 110 -65 214 -36 105 -65 202 -65 215 0 22 47 96 61 97 4 0 14 -28 24
-62 23 -86 142 -369 165 -392 23 -24 66 -15 81 18 9 20 5 35 -29 97 -22 41
-57 128 -77 194 -20 66 -47 149 -60 185 l-23 66 580 719 c319 396 587 730 597
743 l17 24 215 -269 c119 -147 301 -374 405 -503 437 -541 560 -696 567 -707
8 -13 -23 -105 -118 -347 -36 -92 -65 -175 -65 -185 0 -10 9 -26 20 -36 29
-26 66 -13 89 33 42 83 110 252 131 327 12 44 25 84 29 88 14 15 61 -60 61
-97 0 -19 -29 -118 -65 -220 -36 -102 -65 -192 -65 -200 0 -22 28 -46 54 -46
37 0 54 29 115 201 32 90 63 165 68 166 5 2 21 -17 34 -41 l23 -45 -28 -88
c-16 -48 -57 -169 -92 -267 -35 -99 -64 -188 -64 -198 0 -24 44 -51 70 -43 28
9 37 30 119 278 40 119 77 217 82 217 5 0 16 -11 25 -25 16 -25 15 -33 -35
-205 -28 -99 -51 -190 -51 -203 0 -32 22 -49 57 -45 38 4 62 51 103 198 32
116 50 143 50 76 0 -51 -33 -169 -85 -300 -51 -131 -51 -159 0 -172 48 -12 81
42 140 231 21 66 40 124 43 129 2 4 30 -19 61 -53 60 -65 86 -71 116 -29 18
27 12 40 -52 120 -29 37 -53 70 -53 74 0 3 10 4 23 0 21 -5 345 20 379 30 26
8 32 41 13 71 -16 24 -19 25 -79 17 -98 -14 -413 -11 -428 3 -10 10 -5 13 23
13 105 2 292 20 304 30 18 15 20 61 3 78 -9 9 -73 12 -225 12 -200 0 -214 1
-233 20 -11 11 -20 24 -20 29 0 5 69 12 153 16 386 18 407 21 407 71 0 44 -26
57 -104 51 -39 -4 -176 -12 -304 -18 -228 -12 -233 -12 -260 8 -15 11 -28 30
-30 42 -3 18 2 21 30 21 18 1 104 7 192 14 134 11 161 15 172 31 19 26 17 49
-5 69 -18 17 -35 17 -227 7 -282 -15 -261 -17 -300 25 -19 19 -34 39 -34 43 0
4 53 11 118 14 113 6 338 32 375 43 26 8 40 40 27 64 -19 35 -42 40 -101 24
-46 -13 -506 -41 -514 -32 -2 2 -130 161 -285 353 -155 193 -408 507 -563 699
-155 193 -295 367 -310 388 l-28 37 300 373 c165 205 584 726 931 1158 348
432 633 786 635 788 2 2 61 -40 131 -92 144 -106 179 -118 210 -71 15 24 15
33 -1 142 -20 132 -17 185 20 378 37 190 34 225 -18 225 -20 0 -57 -17 -106
-50 -156 -102 -315 -159 -488 -175 -57 -6 -76 -12 -94 -31 -21 -22 -21 -25 -6
-48 9 -13 73 -66 141 -117 109 -81 124 -95 112 -108 -7 -9 -152 -189 -322
-401 -171 -212 -411 -511 -535 -665 -124 -154 -322 -399 -439 -545 -117 -146
-286 -356 -374 -467 -89 -111 -164 -202 -167 -202 -6 -1 -71 79 -574 704 -115
143 -367 456 -560 695 -627 778 -715 889 -715 897 1 4 51 44 113 88 151 108
171 128 157 156 -16 29 -70 49 -133 49 -118 0 -304 67 -445 159 -105 69 -127
76 -153 50z" fill="#dadada" class="color000 svgShape"></path><path d="M1925 4263c-53-14-187-133-263-234-22-30-68-106-102-169-34-63-66-119-70-123-4-4-19 54-34 130-15 76-34 147-41 159-37 57-117 51-156-12l-21-34 16-292c27-483 93-1056 137-1196 16-50 56-90 101-103 38-10 43-8 77 19 54 43 65 87 47 186-8 45-24 164-36 266-11 102-30 260-41 353-12 92-18 178-15 192 5 20 19 28 79 46 139 41 271 123 373 231 120 127 157 260 118 430-25 108-94 170-169 151zm44-144c14-39 14-110 0-168-30-132-117-228-323-353-166-101-175-88-80 111 90 190 212 355 303 413 60 38 86 37 100-3zM5842 4093c-20-8-46-68-90-208-158-507-325-1032-330-1039-7-12-96 253-163 484-57 197-69 221-116 247l-33 18-34-35c-26-26-56-88-120-240-46-113-92-223-101-245-13-29-19-35-25-25-4 8-51 143-103 300-181 542-203 590-289 625-36 14-39 14-59-6-19-19-21-29-16-88 9-110 151-674 234-924 50-152 76-191 135-202 49-9 117 11 148 45 20 21 49 100 120 324 52 163 97 296 101 296 4 0 12-15 18-32 126-406 218-683 239-723 33-60 86-115 112-115 10 0 30 10 45 23 21 18 36 61 85 237 33 118 126 434 207 702 105 352 144 494 139 513-13 52-63 85-104 68zM3372 2188c-2-78-11-95-39-67-11 11-33 5-33-9 0-4 14-16 31-26l31-18-25-27c-13-14-27-34-30-43-3-10-21-24-39-31l-33-14 57-13c32-7 55-16 53-20-3-4-25-13-50-20-25-7-45-19-45-26 0-8-7-14-15-14-8 0-15-4-15-10 0-6 31-10 73-10l72-1-28-24c-15-14-46-28-68-31-39-7-65-24-34-24 28 0 7-17-30-24-47-9-44-22 6-29 43-6 62-17 41-24-6-3-10-9-7-13 3-5 17-5 32 1 34 13 38 6 18-25-25-38-75-65-136-74l-54-8 30-16 30-16-47-12c-58-15-62-30-8-30 22 0 40-4 40-10 0-5-4-10-8-10-5 0-17-7-28-16-18-15-18-15 6-10 14 2 37 8 53 11 20 6 27 4 27-8 0-28-27-43-114-67-47-12-86-27-86-32 0-5 18-17 40-25 34-14 38-18 27-31-10-13-7-14 32-8 30 4 47 3 52-5 5-9 15-9 40 0 19 6 29 8 24 3-17-16-75-31-140-38l-64-7 22-19c22-19 22-19-40-12-79 8-82-6-9-36 38-15 53-26 49-36-4-11 5-14 35-14 23 0 53-5 69-12l28-11-40-8c-22-4-66-8-97-8-67-1-77-18-18-27 61-10 56-21-13-28-34-4-73-10-87-14-25-6-25-6 5-13 17-4 53-7 80-8l50-2-48-22c-27-12-46-25-43-28 4-3 41 2 83 12 74 18 103 17 73-1-29-18-2-18 100 1 153 27 140 34 140-71l0-90 35 0 35 0 0 95c0 111-14 104 147 71 62-13 115-21 118-18 2 3-3 11-13 19-15 13-14 14 13 8 53-12 149-24 154-20 5 5-63 35-79 35-6 0-8 5-5 10 3 6 32 10 63 10 66 0 99 14 58 24-14 3-53 9-86 13-69 7-78 20-20 29 22 4 43 10 45 14 7 11-26 17-125 26-128 10-139 21-32 29 91 7 116 19 67 31-14 3-25 9-25 13 0 3 17 21 37 39l38 33-43-6c-40-5-42-4-32 14 14 27 15 26-35 26-24 0-50 7-57 14-11 11-7 12 25 9 35-4 51 5 25 15-7 2 4 12 25 22 20 11 37 22 37 25 0 9-67 37-106 45-32 6-72 40-61 51 3 4 25 2 49-4 23-6 45-8 48-5 3 3 0 8-6 10-6 2-20 10-30 18-18 13-16 14 22 15 61 0 62 13 2 31l-53 16 35 15 35 15-45 7c-86 13-99 17-125 37-14 12-25 31-25 45 0 23 3 24 43 18 33-4 38-3 25 6-30 18-20 30 25 30 66 0 77 15 20 30-28 8-41 15-30 17 20 5 23 23 4 23-28 0-117 31-132 46-27 27-16 33 23 12 26-15 46-19 65-14 32 8 35 22 7 31-11 3-20 12-20 20 0 7-17 27-37 44l-38 31 46 0c42 0 47 2 47 24 0 20-9 28-51 43-62 22-73 43-23 43 34 0 35 1 24 25-10 23-12 23-39 9-36-18-38-4-9 44 25 41 25 45 1 32-29-15-30-14-34 38-2 33-4 24-5-30z" fill="#dadada" class="color000 svgShape"></path></g></svg></g></svg>